# xmcd
#
# Track frame offsets: 
#        150
#        8069
#        31442
#        35941
#        59009
#        74015
#        98496
#        113781
#        138304
#        155827
#
# Disc length: 2575 seconds
#
# Revision: 0
# Processed by: cddbd v1.5.2PL0 Copyright (c) Steve Scherf et al.
# Submitted via: ExactAudioCopy v0.95b3
#
DISCID=8f0a0d0a
DTITLE=David Crosby  - More Buried Treasure [CD3] - 1971  FLAC
DYEAR=1900
DGENRE=
TTITLE0=Walking In the Mountains
TTITLE1=Is it Really Monday?
TTITLE2=You Sit There~aka Under Anesthesia [false start]
TTITLE3=You Sit There~aka Under Anesthesia
TTITLE4=Garcia's Tune (Loser #1~2)
TTITLE5=Garcia's Tune (Loser #3~4)
TTITLE6=Wayfaring Stranger~aka Over Jordan
TTITLE7=Mountain Song #2
TTITLE8=Mountain Song #3
TTITLE9=Mountain Song #4
EXTD=
EXTT0=
EXTT1=
EXTT2=
EXTT3=
EXTT4=
EXTT5=
EXTT6=
EXTT7=
EXTT8=
EXTT9=
PLAYORDER=
